<svg id="visual" viewBox="0 0 900 600" width="900" height="600" xmlns="http://www.w3.org/2000/svg" xmlns:xlink="http://www.w3.org/1999/xlink" version="1.1"><rect x="0" y="0" width="900" height="600" fill="#fff"></rect><path d="M0 370L21.5 373.3C43 376.7 86 383.3 128.8 382.5C171.7 381.7 214.3 373.3 257.2 376.5C300 379.7 343 394.3 385.8 400.5C428.7 406.7 471.3 404.3 514.2 406.8C557 409.3 600 416.7 642.8 419.8C685.7 423 728.3 422 771.2 418.2C814 414.3 857 407.7 878.5 404.3L900 401L900 601L878.5 601C857 601 814 601 771.2 601C728.3 601 685.7 601 642.8 601C600 601 557 601 514.2 601C471.3 601 428.7 601 385.8 601C343 601 300 601 257.2 601C214.3 601 171.7 601 128.8 601C86 601 43 601 21.5 601L0 601Z" fill="#ffffff"></path><path d="M0 451L21.5 446.3C43 441.7 86 432.3 128.8 428.8C171.7 425.3 214.3 427.7 257.2 432.2C300 436.7 343 443.3 385.8 443.2C428.7 443 471.3 436 514.2 439.7C557 443.3 600 457.7 642.8 463.8C685.7 470 728.3 468 771.2 468.5C814 469 857 472 878.5 473.5L900 475L900 601L878.5 601C857 601 814 601 771.2 601C728.3 601 685.7 601 642.8 601C600 601 557 601 514.2 601C471.3 601 428.7 601 385.8 601C343 601 300 601 257.2 601C214.3 601 171.7 601 128.8 601C86 601 43 601 21.5 601L0 601Z" fill="#fcf6ef"></path><path d="M0 486L21.5 482.3C43 478.7 86 471.3 128.8 472.3C171.7 473.3 214.3 482.7 257.2 480.3C300 478 343 464 385.8 458C428.7 452 471.3 454 514.2 462.3C557 470.7 600 485.3 642.8 483.2C685.7 481 728.3 462 771.2 458C814 454 857 465 878.5 470.5L900 476L900 601L878.5 601C857 601 814 601 771.2 601C728.3 601 685.7 601 642.8 601C600 601 557 601 514.2 601C471.3 601 428.7 601 385.8 601C343 601 300 601 257.2 601C214.3 601 171.7 601 128.8 601C86 601 43 601 21.5 601L0 601Z" fill="#f9eedf"></path><path d="M0 527L21.5 524.3C43 521.7 86 516.3 128.8 513.2C171.7 510 214.3 509 257.2 511.2C300 513.3 343 518.7 385.8 515.3C428.7 512 471.3 500 514.2 501.7C557 503.3 600 518.7 642.8 522.3C685.7 526 728.3 518 771.2 514.5C814 511 857 512 878.5 512.5L900 513L900 601L878.5 601C857 601 814 601 771.2 601C728.3 601 685.7 601 642.8 601C600 601 557 601 514.2 601C471.3 601 428.7 601 385.8 601C343 601 300 601 257.2 601C214.3 601 171.7 601 128.8 601C86 601 43 601 21.5 601L0 601Z" fill="#f5e5cf"></path><path d="M0 528L21.5 531.5C43 535 86 542 128.8 548.2C171.7 554.3 214.3 559.7 257.2 560C300 560.3 343 555.7 385.8 555.5C428.7 555.3 471.3 559.7 514.2 559.8C557 560 600 556 642.8 551.2C685.7 546.3 728.3 540.7 771.2 538C814 535.3 857 535.7 878.5 535.8L900 536L900 601L878.5 601C857 601 814 601 771.2 601C728.3 601 685.7 601 642.8 601C600 601 557 601 514.2 601C471.3 601 428.7 601 385.8 601C343 601 300 601 257.2 601C214.3 601 171.7 601 128.8 601C86 601 43 601 21.5 601L0 601Z" fill="#f1ddbf"></path></svg>