<?xml version="1.0" standalone="no"?><svg xmlns="http://www.w3.org/2000/svg" viewBox="0 0 1440 320"><path fill="#92ba92" fill-opacity="1" d="M0,192L30,208C60,224,120,256,180,250.7C240,245,300,203,360,192C420,181,480,203,540,213.3C600,224,660,224,720,224C780,224,840,224,900,229.3C960,235,1020,245,1080,250.7C1140,256,1200,256,1260,218.7C1320,181,1380,107,1410,69.3L1440,32L1440,320L1410,320C1380,320,1320,320,1260,320C1200,320,1140,320,1080,320C1020,320,960,320,900,320C840,320,780,320,720,320C660,320,600,320,540,320C480,320,420,320,360,320C300,320,240,320,180,320C120,320,60,320,30,320L0,320Z"></path></svg>