<?xml version="1.0" standalone="no"?><svg xmlns="http://www.w3.org/2000/svg" viewBox="0 0 1440 320"><path fill="#ffffff" fill-opacity="1" d="M0,160L24,165.3C48,171,96,181,144,202.7C192,224,240,256,288,277.3C336,299,384,309,432,277.3C480,245,528,171,576,149.3C624,128,672,160,720,186.7C768,213,816,235,864,229.3C912,224,960,192,1008,176C1056,160,1104,160,1152,160C1200,160,1248,160,1296,154.7C1344,149,1392,139,1416,133.3L1440,128L1440,320L1416,320C1392,320,1344,320,1296,320C1248,320,1200,320,1152,320C1104,320,1056,320,1008,320C960,320,912,320,864,320C816,320,768,320,720,320C672,320,624,320,576,320C528,320,480,320,432,320C384,320,336,320,288,320C240,320,192,320,144,320C96,320,48,320,24,320L0,320Z"></path></svg>